<svg xmlns="http://www.w3.org/2000/svg" xmlns:se="http://svg-edit.googlecode.com" xmlns:xlink="http://www.w3.org/1999/xlink" xmlns:dc="http://purl.org/dc/elements/1.1/" xmlns:cc="http://creativecommons.org/ns#" xmlns:rdf="http://www.w3.org/1999/02/22-rdf-syntax-ns#" xmlns:inkscape="http://www.inkscape.org/namespaces/inkscape" width="777" height="480" style="">                                    <title>my vector image</title>                                    <!-- Created with Vector Paint - http://www.vectorpaint.yaks.com/ https://chrome.google.com/webstore/detail/hnbpdiengicdefcjecjbnjnoifekhgdo -->                                    <rect id="backgroundrect" width="100%" height="100%" x="0" y="0" fill="#FFFFFF" stroke="none"/>                                <g class="currentLayer" style=""><title>Layer 1</title><path fill="#0bd5d5" stroke-width="2" stroke-linejoin="round" stroke-dashoffset="" fill-rule="nonzero" marker-start="" marker-mid="" marker-end="" id="svg_1" d="M1.5937158216030596,1.3864813199949855 L239.61023418311476,1.3864813199949855 L239.61023418311476,1.3864813199949855 C371.0631470907448,1.3864813199949855 477.6267525446269,107.95010274813966 477.6267525446269,239.40299968150666 C477.6267525446269,370.855912589137 371.0631470907448,477.4195180430184 239.61023418311476,477.4195180430184 L1.5937158216030596,477.4195180430184 L1.5937158216030596,1.3864813199949855 z" style="color: rgb(0, 0, 0);"/><path fill="#04b8b8" fill-opacity="1" stroke="none" stroke-opacity="1" stroke-width="2" stroke-dasharray="none" stroke-linejoin="round" stroke-linecap="butt" stroke-dashoffset="" fill-rule="nonzero" opacity="1" marker-start="" marker-mid="" marker-end="" d="M24.644628524780273,255.3966941833496 C24.644628524780273,132.19227429384685 132.2717003479847,32.39669418334961 265.1446285247803,32.39669418334961 C398.0175567015758,32.39669418334961 505.6446285247803,132.19227429384685 505.6446285247803,255.3966941833496 C505.6446285247803,378.6011140728524 398.0175567015758,478.3966941833496 265.1446285247803,478.3966941833496 C132.2717003479847,478.3966941833496 24.644628524780273,378.6011140728524 24.644628524780273,255.3966941833496 z" id="svg_2" class=""/><path fill="#dadada" fill-opacity="1" stroke="none" stroke-opacity="1" stroke-width="2" stroke-dasharray="none" stroke-linejoin="round" stroke-linecap="butt" stroke-dashoffset="" fill-rule="nonzero" opacity="1" marker-start="" marker-mid="" marker-end="" d="M40.34710693359375,223.99173545837402 C40.34710693359375,100.78731556887126 147.97417875679818,0.9917354583740234 280.84710693359375,0.9917354583740234 C413.7200351103893,0.9917354583740234 521.3471069335938,100.78731556887126 521.3471069335938,223.99173545837402 C521.3471069335938,347.1961553478768 413.7200351103893,446.991735458374 280.84710693359375,446.991735458374 C147.97417875679818,446.991735458374 40.34710693359375,347.1961553478768 40.34710693359375,223.99173545837402 z" class="" id="svg_3"/><path fill="#0bd5d5" stroke-width="2" stroke-linejoin="round" stroke-dashoffset="" fill-rule="nonzero" marker-start="" marker-mid="" marker-end="" id="svg_4" d="M3.2383440915960953,3.031109476023914 L239.6019686599697,3.031109476023914 L239.6019686599697,3.031109476023914 C370.14201339638754,3.031109476023914 475.9655932283432,108.85470517131003 475.9655932283432,239.39473404439747 C475.9655932283432,369.9347787808154 370.14201339638754,475.75835861277073 239.6019686599697,475.75835861277073 L3.2383440915960953,475.75835861277073 L3.2383440915960953,3.031109476023914 z" style="color: rgb(0, 0, 0);"/></g></svg>